<?xml version="1.0" encoding="UTF-8"?>
<!DOCTYPE svg PUBLIC "-//W3C//DTD SVG 1.1//EN" "http://www.w3.org/Graphics/SVG/1.1/DTD/svg11.dtd">
<svg version="1.1" xmlns="http://www.w3.org/2000/svg" xmlns:xlink="http://www.w3.org/1999/xlink" x="0" y="0" width="800" height="600" viewBox="0, 0, 800, 600">
  <g id="Layer">
    <path d="M0,30 L800,30 L800,600 L0,600 L0,30 z" fill="#FFFFFF"/>
    <path d="M0,570 L635,570 L635,600 L0,600 L0,570 z" fill="#F2F2F2"/>
    <path d="M635.009,30 L800,30 L800,600 L635.009,600 L635.009,30 z" fill="#F2F5FA"/>
    <path d="M605,570 L635,570 L635,600 L605,600 L605,570 z" fill="#92B2DE"/>
  </g>
  <g id="Layer_2">
    <g>
      <path d="M645,40 L675,40 L675,70 L645,70 L645,40 z" fill="#AAAAAA"/>
      <text transform="matrix(1, 0, 0, 1, 720.995, 47.5)">
        <tspan x="-35.995" y="2.5" font-family="AvenirNext-Regular" font-size="10" fill="#1061A3">Simeon Vincent</tspan>
      </text>
      <text transform="matrix(1, 0, 0, 1, 704.165, 62.5)">
        <tspan x="-19.165" y="2.5" font-family="AvenirNext-Regular" font-size="10" fill="#AAAAAA">svincent</tspan>
      </text>
      <text transform="matrix(1, 0, 0, 1, 786.6, 52.5)">
        <tspan x="-2.4" y="2.5" font-family="AvenirNext-Regular" font-size="10" fill="#1061A3">9</tspan>
      </text>
    </g>
    <g>
      <path d="M645,80 L675,80 L675,110 L645,110 L645,80 z" fill="#AAAAAA"/>
      <text transform="matrix(1, 0, 0, 1, 726.885, 87.5)">
        <tspan x="-41.885" y="2.5" font-family="AvenirNext-Regular" font-size="10" fill="#1061A3">Christopher Giroir </tspan>
      </text>
      <text transform="matrix(1, 0, 0, 1, 698.455, 102.5)">
        <tspan x="-13.455" y="2.5" font-family="AvenirNext-Regular" font-size="10" fill="#AAAAAA">kelsin</tspan>
      </text>
      <text transform="matrix(1, 0, 0, 1, 783.7, 92.5)">
        <tspan x="-5.3" y="2.5" font-family="AvenirNext-Regular" font-size="10" fill="#1061A3">12</tspan>
      </text>
    </g>
    <g>
      <path d="M645,120 L675,120 L675,150 L645,150 L645,120 z" fill="#AAAAAA"/>
      <text transform="matrix(1, 0, 0, 1, 701.615, 127.5)">
        <tspan x="-16.615" y="2.5" font-family="AvenirNext-Regular" font-size="10" fill="#1061A3">brotkel</tspan>
      </text>
      <text transform="matrix(1, 0, 0, 1, 786.6, 132.5)">
        <tspan x="-2.4" y="2.5" font-family="AvenirNext-Regular" font-size="10" fill="#1061A3">2</tspan>
      </text>
    </g>
  </g>
  <g id="Layer_3">
    <text transform="matrix(1, 0, 0, 1, 57.195, 462.5)">
      <tspan x="-16.805" y="2.5" font-family="AvenirNext-Regular" font-size="10" fill="#000000">Simeon</tspan>
    </text>
    <text transform="matrix(1, 0, 0, 1, 47.325, 287.5)">
      <tspan x="-26.675" y="2.5" font-family="AvenirNext-Regular" font-size="10" fill="#000000">Christopher</tspan>
    </text>
    <text transform="matrix(1, 0, 0, 1, 63.295, 162.5)">
      <tspan x="-15.705" y="2.5" font-family="AvenirNext-Regular" font-size="10" fill="#000000">broktel</tspan>
    </text>
    <text transform="matrix(1, 0, 0, 1, 57.756, 174)">
      <tspan x="-21.244" y="2" font-family="AvenirNext-Regular" font-size="8" fill="#676767">3 hours ago</tspan>
    </text>
    <text transform="matrix(1, 0, 0, 1, 46.24, 299)">
      <tspan x="-27.76" y="2" font-family="AvenirNext-Regular" font-size="8" fill="#676767">45 minutes ago</tspan>
    </text>
    <text transform="matrix(1, 0, 0, 1, 43.044, 476)">
      <tspan x="-23.7" y="2" font-family="AvenirNext-Regular" font-size="8" fill="#676767">&lt; 1 minute ago</tspan>
    </text>
    <g>
      <text transform="matrix(1, 0, 0, 1, 331.75, 462.5)">
        <tspan x="-236.75" y="2.5" font-family="AvenirNext-Regular" font-size="10" fill="#000000">Quisque ac rhoncus augue. Pellentesque urna urna, eleifend in urna sit amet, facilisis ullamcorper lectus. </tspan>
      </text>
      <text transform="matrix(1, 0, 0, 1, 349.135, 476.5)">
        <tspan x="-254.135" y="2.5" font-family="AvenirNext-Regular" font-size="10" fill="#000000">Maecenas posuere, nunc id blandit aliquam, lacus augue pretium massa, a varius massa purus at tellus. Praesent </tspan>
      </text>
      <text transform="matrix(1, 0, 0, 1, 338.09, 490.5)">
        <tspan x="-243.09" y="2.5" font-family="AvenirNext-Regular" font-size="10" fill="#000000">eget adipiscing tortor. Integer cursus tincidunt vestibulum. Quisque ut purus aliquet, cursus turpis vehicula, </tspan>
      </text>
      <text transform="matrix(1, 0, 0, 1, 351.785, 504.5)">
        <tspan x="-256.785" y="2.5" font-family="AvenirNext-Regular" font-size="10" fill="#000000">ornare lacus. Maecenas vehicula cursus orci nec pulvinar. Morbi lectus risus, tincidunt fermentum fermentum sed, </tspan>
      </text>
      <text transform="matrix(1, 0, 0, 1, 334.79, 518.5)">
        <tspan x="-239.79" y="2.5" font-family="AvenirNext-Regular" font-size="10" fill="#000000">adipiscing sed quam. Nunc dui dui, blandit at ultrices vitae, vestibulum et libero. Quisque hendrerit luctus </tspan>
      </text>
      <text transform="matrix(1, 0, 0, 1, 341.85, 532.5)">
        <tspan x="-246.85" y="2.5" font-family="AvenirNext-Regular" font-size="10" fill="#000000">pharetra. Nunc ac posuere libero. Curabitur ut urna nibh. Maecenas id elit dui. Nulla libero libero, gravida vel </tspan>
      </text>
      <text transform="matrix(1, 0, 0, 1, 254.88, 546.5)">
        <tspan x="-159.88" y="2.5" font-family="AvenirNext-Regular" font-size="10" fill="#000000">convallis ut, consectetur sit amet dolor. Vivamus cursus gravida lacinia.</tspan>
      </text>
    </g>
    <path d="M95.077,175 L620,175 L620,250 L95.077,250 L95.077,175 z" fill="#E9E9E9"/>
    <g>
      <text transform="matrix(1, 0, 0, 1, 348.015, 287.5)">
        <tspan x="-253.015" y="2.5" font-family="AvenirNext-Regular" font-size="10" fill="#000000">Integer vitae massa vel erat molestie aliquam. Praesent eros metus, commodo ac scelerisque non, pellentesque </tspan>
      </text>
      <text transform="matrix(1, 0, 0, 1, 351.26, 301.5)">
        <tspan x="-256.26" y="2.5" font-family="AvenirNext-Regular" font-size="10" fill="#000000">quis quam. Nulla at ligula ut orci fermentum fermentum. Pellentesque ac libero sodales, hendrerit purus rhoncus, </tspan>
      </text>
      <text transform="matrix(1, 0, 0, 1, 124.69, 315.5)">
        <tspan x="-29.69" y="2.5" font-family="AvenirNext-Regular" font-size="10" fill="#000000">egestas felis.</tspan>
      </text>
      <text transform="matrix(1, 0, 0, 1, 338.89, 343.5)">
        <tspan x="-243.89" y="2.5" font-family="AvenirNext-Regular" font-size="10" fill="#000000">Nunc sodales, diam at tristique viverra, ante dui vehicula dolor, sed imperdiet leo justo at arcu. Suspendisse </tspan>
      </text>
      <text transform="matrix(1, 0, 0, 1, 352.305, 357.5)">
        <tspan x="-257.305" y="2.5" font-family="AvenirNext-Regular" font-size="10" fill="#000000">pulvinar dui non purus suscipit, id iaculis dui dictum. Nam tempor porttitor euismod. Pellentesque habitant morbi </tspan>
      </text>
      <text transform="matrix(1, 0, 0, 1, 352.14, 371.5)">
        <tspan x="-257.14" y="2.5" font-family="AvenirNext-Regular" font-size="10" fill="#000000">tristique senectus et netus et malesuada fames ac turpis egestas. Aenean et consectetur dui, in fermentum lorem.</tspan>
      </text>
      <text transform="matrix(1, 0, 0, 1, 347.735, 399.5)">
        <tspan x="-252.735" y="2.5" font-family="AvenirNext-Regular" font-size="10" fill="#000000">Etiam in luctus mi. Maecenas ac diam id felis molestie auctor non euismod lacus. Mauris pulvinar felis urna, quis </tspan>
      </text>
      <text transform="matrix(1, 0, 0, 1, 200.31, 413.5)">
        <tspan x="-105.31" y="2.5" font-family="AvenirNext-Regular" font-size="10" fill="#000000">porttitor libero cursus id. Suspendisse potenti.</tspan>
      </text>
    </g>
    <g>
      <text transform="matrix(1, 0, 0, 1, 162.91, 184.816)">
        <tspan x="-62.91" y="2" font-family="CourierNewPSMT" font-size="8" fill="#676767">// my first program in C++</tspan>
      </text>
      <text transform="matrix(1, 0, 0, 1, 160.51, 193.816)">
        <tspan x="-60.51" y="2" font-family="CourierNewPSMT" font-size="8" fill="#676767">#include &lt;iostream&gt;</tspan>
      </text>
      <text transform="matrix(1, 0, 0, 1, 124.504, 211.816)">
        <tspan x="-24.504" y="2" font-family="CourierNewPSMT" font-size="8" fill="#676767">int main()</tspan>
      </text>
      <text transform="matrix(1, 0, 0, 1, 102.9, 220.816)">
        <tspan x="-2.9" y="2" font-family="CourierNewPSMT" font-size="8" fill="#676767">{</tspan>
      </text>
      <text transform="matrix(1, 0, 0, 1, 208.518, 229.816)">
        <tspan x="-108.518" y="2" font-family="CourierNewPSMT" font-size="8" fill="#676767"> std::cout &lt;&lt; "Hello World!";</tspan>
      </text>
      <text transform="matrix(1, 0, 0, 1, 102.9, 238.816)">
        <tspan x="-2.9" y="2" font-family="CourierNewPSMT" font-size="8" fill="#676767">}</tspan>
      </text>
    </g>
    <text transform="matrix(1, 0, 0, 1, 143.005, 161.5)">
      <tspan x="-48.005" y="2.5" font-family="AvenirNext-Regular" font-size="10" fill="#000000">Suspe vel erat libero. </tspan>
    </text>
    <g>
      <text transform="matrix(1, 0, 0, 1, 349.51, 26.5)">
        <tspan x="-254.51" y="2.5" font-family="AvenirNext-Regular" font-size="10" fill="#000000">Vestibulum luctus pellentesque mauris, eget sagittis velit cursus at. Maecenas suscipit, nisl non aliquam rhoncus, </tspan>
      </text>
      <text transform="matrix(1, 0, 0, 1, 298.105, 40.5)">
        <tspan x="-203.105" y="2.5" font-family="AvenirNext-Regular" font-size="10" fill="#000000">purus erat porta enim, ac sodales enim neque nec tortor. Nam pretium et enim nec porta.</tspan>
      </text>
      <text transform="matrix(1, 0, 0, 1, 347.935, 68.5)">
        <tspan x="-252.935" y="2.5" font-family="AvenirNext-Regular" font-size="10" fill="#000000">Integer ac sapien sit amet sapien scelerisque faucibus. Curabitur lobortis, leo lacinia posuere accumsan, nisl elit </tspan>
      </text>
      <text transform="matrix(1, 0, 0, 1, 341.49, 82.5)">
        <tspan x="-246.49" y="2.5" font-family="AvenirNext-Regular" font-size="10" fill="#000000">ultrices justo, a lobortis velit eros sit amet felis. Aenean eget augue vitae velit bibendum lacinia. Vivamus felis </tspan>
      </text>
      <text transform="matrix(1, 0, 0, 1, 333.575, 96.5)">
        <tspan x="-238.575" y="2.5" font-family="AvenirNext-Regular" font-size="10" fill="#000000">lorem, consequat vitae interdum ac, faucibus et nunc. Pellentesque tellus enim, mattis in arcu a, dignissim </tspan>
      </text>
      <text transform="matrix(1, 0, 0, 1, 223.735, 110.5)">
        <tspan x="-128.735" y="2.5" font-family="AvenirNext-Regular" font-size="10" fill="#000000">sollicitudin nisl. Donned tempor porta massa nec lacinia.</tspan>
      </text>
    </g>
  </g>
  <g id="Layer_4">
    <path d="M0,30 L800,30 L800,0 L0,0 L0,30 z" fill="url(#Gradient_1)"/>
    <text transform="matrix(1, 0, 0, 1, 41.83, 16.5)">
      <tspan x="-31.83" y="8.5" font-family="STHeitiSC-Light" font-size="26" fill="#000000">Gimli</tspan>
    </text>
    <text transform="matrix(1, 0, 0, 1, 769.293, 14.57)">
      <tspan x="-19.165" y="2.5" font-family="AvenirNext-Regular" font-size="10" fill="#1061A3">svincent</tspan>
    </text>
    <text transform="matrix(1, 0, 0, 1, 114.42, 14.57)">
      <tspan x="-14.42" y="2.5" font-family="AvenirNext-Regular" font-size="10" fill="#1061A3">Home</tspan>
    </text>
    <text transform="matrix(1, 0, 0, 1, 150.265, 14.57)">
      <tspan x="-10.265" y="2.5" font-family="AvenirNext-Regular" font-size="10" fill="#000000">&gt;</tspan>
    </text>
    <text transform="matrix(1, 0, 0, 1, 176.17, 14.57)">
      <tspan x="-16.17" y="2.5" font-family="AvenirNext-Regular" font-size="10" fill="#1061A3">legitco</tspan>
    </text>
    <text transform="matrix(1, 0, 0, 1, 220.265, 14.57)">
      <tspan x="-10.265" y="2.5" font-family="AvenirNext-Regular" font-size="10" fill="#000000">&gt;</tspan>
    </text>
    <text transform="matrix(1, 0, 0, 1, 265.505, 14.57)">
      <tspan x="-35.505" y="2.5" font-family="AvenirNext-Regular" font-size="10" fill="#1061A3">gimli-mock ups</tspan>
    </text>
    <g>
      <path d="M730.128,14.57 C730.128,11.325 732.759,8.694 736.004,8.694 C739.249,8.694 741.88,11.325 741.88,14.57 C741.88,17.816 739.249,20.447 736.004,20.447 C732.759,20.447 730.128,17.816 730.128,14.57 z" fill="#F56356"/>
      <path d="M737.959,11.58 L735.009,11.58 L734.959,13.77 C735.112,13.717 735.274,13.677 735.444,13.65 C735.614,13.624 735.779,13.61 735.939,13.61 C736.272,13.61 736.579,13.664 736.859,13.77 C737.139,13.877 737.382,14.029 737.589,14.225 C737.796,14.422 737.956,14.657 738.069,14.93 C738.182,15.204 738.239,15.504 738.239,15.83 C738.239,16.17 738.182,16.485 738.069,16.775 C737.956,17.065 737.796,17.315 737.589,17.525 C737.382,17.735 737.134,17.9 736.844,18.02 C736.554,18.14 736.236,18.2 735.889,18.2 C735.376,18.2 734.942,18.084 734.589,17.85 C734.236,17.617 733.962,17.304 733.769,16.91 L734.419,16.62 C734.546,16.914 734.737,17.147 734.994,17.32 C735.251,17.494 735.536,17.58 735.849,17.58 C736.089,17.58 736.311,17.539 736.514,17.455 C736.717,17.372 736.892,17.255 737.039,17.105 C737.186,16.955 737.301,16.777 737.384,16.57 C737.467,16.364 737.509,16.14 737.509,15.9 C737.509,15.64 737.464,15.405 737.374,15.195 C737.284,14.985 737.161,14.807 737.004,14.66 C736.847,14.514 736.662,14.4 736.449,14.32 C736.236,14.24 736.002,14.2 735.749,14.2 C735.496,14.2 735.244,14.235 734.994,14.305 C734.744,14.375 734.506,14.47 734.279,14.59 L734.349,10.94 L737.959,10.94 L737.959,11.58 z" fill="#FBFBFB"/>
    </g>
  </g>
  <defs>
    <linearGradient id="Gradient_1" gradientUnits="userSpaceOnUse" x1="409.863" y1="-0.624" x2="410.035" y2="30.4">
      <stop offset="0" stop-color="#FFFFFF"/>
      <stop offset="1" stop-color="#FAFAFA"/>
    </linearGradient>
  </defs>
</svg>
